<svg xmlns="http://www.w3.org/2000/svg"  viewBox="0 0 100 100" width="100px" height="100px"><path d="M23.5,93C16.607,93,11,87.393,11,80.5v-57C11,16.607,16.607,11,23.5,11h57C87.393,11,93,16.607,93,23.5v57 C93,87.393,87.393,93,80.5,93H23.5z" opacity=".35"/><path fill="#f2f2f2" d="M21.5,91C14.607,91,9,85.393,9,78.5v-57C9,14.607,14.607,9,21.5,9h57C85.393,9,91,14.607,91,21.5v57 C91,85.393,85.393,91,78.5,91H21.5z"/><path fill="#70bfff" d="M15.5,78.5v-57c0-3.314,2.686-6,6-6h57c3.314,0,6,2.686,6,6v57c0,3.314-2.686,6-6,6h-57 C18.186,84.5,15.5,81.814,15.5,78.5z"/><path fill="#40396e" d="M78.5,86h-57c-4.136,0-7.5-3.364-7.5-7.5v-57c0-4.136,3.364-7.5,7.5-7.5h57 c4.136,0,7.5,3.364,7.5,7.5v57C86,82.636,82.636,86,78.5,86z M21.5,17c-2.481,0-4.5,2.019-4.5,4.5v57c0,2.481,2.019,4.5,4.5,4.5h57 c2.481,0,4.5-2.019,4.5-4.5v-57c0-2.481-2.019-4.5-4.5-4.5H21.5z"/><g><path fill="#f2f2f2" d="M56,36h14v4H56V36z M45.024,48.854c1.17-0.57,3.806-1.868,3.806-5.714 c0-7.234-7.904-7.14-9.366-7.14H26v28h14.05c1.17-0.002,9.95-0.332,9.95-8.004C50,51.046,46.78,49.426,45.024,48.854z M32,41 h6.237c0.622,0,4.676,0.222,4.676,3.349c0,3.125-3.117,3.651-4.052,3.651H32V41z M38.985,59H32v-8h6.985 c1.517,0,4.857,0.492,4.857,4.149C43.842,58.803,39.591,59,38.985,59z M66.846,58.71c-0.915,0.569-1.828,0.858-3.047,0.858 c-4.576,0-5.487-3.858-5.487-5.567h15.541c0-1.71,0-2.972-0.305-4.399c-0.307-1.426-2.39-7.407-10.054-7.407 c-10.711,0-11.28,9.399-11.28,10.82c0,1.422,0.307,3.134,0.919,4.271c0.608,1.424,1.218,2.565,2.132,3.415 c0.913,0.856,2.13,1.704,3.35,2.276c1.523,0.572,3.047,0.858,4.572,0.858c2.435,0,4.572-0.567,6.399-1.708 c1.831-1.139,3.049-2.849,3.962-5.127h-5.18C68.064,57.57,67.759,58.137,66.846,58.71z M63.503,46.36 c3.044,0,4.347,3.192,4.656,4.64h-9.938C58.221,50.713,58.965,46.36,63.503,46.36z"/></g></svg>