<svg xmlns="http://www.w3.org/2000/svg"  viewBox="0 0 100 100" width="200px" height="200px"><path d="M76,94c-10.7,0-19.465-8.446-19.977-19.022l-16.16-6.885C36.452,70.605,32.283,72,28,72C16.972,72,8,63.028,8,52 s8.972-20,20-20c4.283,0,8.451,1.395,11.863,3.906l16.16-6.884C56.535,18.446,65.3,10,76,10c11.028,0,20,8.972,20,20 s-8.972,20-20,20c-3.09,0-6.092-0.704-8.822-2.055L57.66,52l9.518,4.055C69.908,54.704,72.91,54,76,54c11.028,0,20,8.972,20,20 S87.028,94,76,94z" opacity=".35"/><path fill="#f2f2f2" d="M74,92c-10.7,0-19.465-8.446-19.977-19.022l-16.16-6.885C34.452,68.605,30.283,70,26,70 C14.972,70,6,61.028,6,50s8.972-20,20-20c4.283,0,8.451,1.395,11.863,3.906l16.16-6.884C54.535,16.446,63.3,8,74,8 c11.028,0,20,8.972,20,20s-8.972,20-20,20c-3.09,0-6.092-0.704-8.822-2.055L55.66,50l9.518,4.055C67.908,52.704,70.91,52,74,52 c11.028,0,20,8.972,20,20S85.028,92,74,92z"/><circle cx="74" cy="28" r="13.5" fill="#70bfff"/><circle cx="74" cy="72" r="13.5" fill="#70bfff"/><circle cx="26" cy="50" r="13.5" fill="#70bfff"/><rect width="55" height="8.781" x="23.365" y="35.815" fill="#70bfff" transform="rotate(-23.074 50.868 40.208)"/><rect width="55" height="8.781" x="23.365" y="55.404" fill="#70bfff" transform="rotate(-156.926 50.864 59.795)"/><g><path fill="#40396e" d="M74,87c-8.271,0-15-6.729-15-15c0-0.741,0.061-1.498,0.18-2.26l-22.248-9.478 C34.099,63.287,30.175,65,26,65c-8.271,0-15-6.729-15-15s6.729-15,15-15c4.175,0,8.099,1.713,10.932,4.738L59.18,30.26 C59.061,29.498,59,28.741,59,28c0-8.271,6.729-15,15-15s15,6.729,15,15s-6.729,15-15,15c-3.058,0-5.97-0.909-8.476-2.637L42.903,50 l22.621,9.637C68.03,57.909,70.942,57,74,57c8.271,0,15,6.729,15,15S82.271,87,74,87z M36.518,56.954 c0.197,0,0.396,0.039,0.587,0.12l24.371,10.383c0.674,0.287,1.042,1.019,0.87,1.73C62.116,70.144,62,71.09,62,72 c0,6.617,5.383,12,12,12s12-5.383,12-12s-5.383-12-12-12c-2.683,0-5.227,0.876-7.356,2.535c-0.431,0.335-1.008,0.41-1.51,0.196 l-26.23-11.175c-0.562-0.239-0.922-0.794-0.912-1.404c0.001-0.027,0.006-0.137,0.008-0.165l-0.008-0.14 c-0.01-0.61,0.351-1.165,0.912-1.404l26.23-11.175c0.5-0.214,1.078-0.139,1.51,0.196C68.773,39.124,71.317,40,74,40 c6.617,0,12-5.383,12-12s-5.383-12-12-12s-12,5.383-12,12c0,0.91,0.116,1.856,0.346,2.812c0.172,0.712-0.196,1.443-0.87,1.73 L37.104,42.925c-0.618,0.264-1.335,0.083-1.756-0.439C33.053,39.635,29.646,38,26,38c-6.617,0-12,5.383-12,12s5.383,12,12,12 c3.646,0,7.053-1.635,9.348-4.486C35.64,57.151,36.073,56.954,36.518,56.954z"/></g></svg>