<svg xmlns="http://www.w3.org/2000/svg"  viewBox="0 0 100 100" width="200px" height="200px"><circle cx="52" cy="52" r="44" opacity=".35"/><circle cx="50" cy="50" r="44" fill="#f2f2f2"/><circle cx="50" cy="50" r="37.5" fill="#70bfff"/><path fill="#40396e" d="M50,89c-21.505,0-39-17.495-39-39s17.495-39,39-39s39,17.495,39,39S71.505,89,50,89z M50,14 c-19.851,0-36,16.149-36,36s16.149,36,36,36s36-16.149,36-36S69.851,14,50,14z"/><g><path fill="#f2f2f2" d="M68.039,37.456c-1.646-1.648-4.32-1.648-5.966,0L47.171,52.359l-8.423-8.424 c-1.646-1.648-4.32-1.648-5.966,0c-1.648,1.648-1.648,4.32,0,5.966l11.406,11.407c0.823,0.823,1.903,1.236,2.983,1.236 c1.08,0,2.16-0.413,2.983-1.236l17.886-17.886C69.687,41.774,69.687,39.102,68.039,37.456z"/></g></svg>